<svg version="1.2" baseProfile="tiny" xmlns="http://www.w3.org/2000/svg" viewBox="0 0 754.00488 510"><g fill="#A48A7B" stroke="#A3897B" stroke-width=".517" stroke-miterlimit="10"><path d="M32.607 228.931h12.368c5.538 0 10.273 1.964 14.203 5.893 3.928 3.93 5.892 8.665 5.892 14.203 0 5.54-1.964 10.275-5.892 14.203-3.93 3.93-8.665 5.894-14.203 5.894h-9.277v18.551a2.98 2.98 0 0 1-.907 2.183 2.977 2.977 0 0 1-2.184.908c-.85 0-1.578-.303-2.183-.908a2.975 2.975 0 0 1-.91-2.183v-55.653c0-.85.304-1.578.91-2.183a2.977 2.977 0 0 1 2.183-.908zm3.091 6.184v27.826h9.277c3.839 0 7.117-1.36 9.835-4.078 2.717-2.717 4.077-5.997 4.077-9.836 0-3.839-1.36-7.117-4.077-9.836-2.718-2.717-5.996-4.076-9.835-4.076h-9.277zM78.7 228.931h15.458c5.127 0 9.5 1.81 13.122 5.43 3.618 3.62 5.429 7.994 5.429 13.12 0 5.127-1.804 9.495-5.41 13.101-1.675 1.677-3.493 2.952-5.45 3.828l13.449 21.564c.335.49.503 1.056.503 1.701 0 .85-.303 1.579-.91 2.183a2.977 2.977 0 0 1-2.182.908c-1.109 0-2.01-.527-2.706-1.585L95.51 265.993c-.438.027-.887.039-1.352.039H81.79v21.643a2.98 2.98 0 0 1-.907 2.183c-.605.605-1.333.908-2.184.908s-1.578-.303-2.183-.908a2.975 2.975 0 0 1-.91-2.183v-55.653c0-.85.304-1.578.91-2.183a2.977 2.977 0 0 1 2.183-.908zm3.09 6.184v24.733h12.368c3.426 0 6.345-1.204 8.754-3.613s3.613-5.326 3.613-8.754c0-3.426-1.204-6.344-3.613-8.753s-5.328-3.613-8.754-3.613H81.79zM188.174 259.848c0 8.528-3.022 15.814-9.062 21.856-6.042 6.042-13.327 9.062-21.856 9.062-8.528 0-15.814-3.02-21.854-9.062-6.042-6.042-9.064-13.328-9.064-21.856 0-8.527 3.022-15.812 9.064-21.854 6.04-6.042 13.326-9.063 21.854-9.063 8.529 0 15.814 3.02 21.856 9.063 6.04 6.042 9.062 13.327 9.062 21.854zm-30.918-24.733c-6.827 0-12.657 2.416-17.488 7.245-4.831 4.831-7.247 10.66-7.247 17.488 0 6.829 2.416 12.657 7.247 17.488 4.831 4.831 10.66 7.247 17.488 7.247 6.827 0 12.657-2.416 17.488-7.247 4.831-4.83 7.247-10.66 7.247-17.488 0-6.827-2.416-12.657-7.247-17.488-4.83-4.83-10.66-7.245-17.488-7.245zM225.647 289.838c-.618.618-1.353.928-2.203.928-.851 0-1.572-.31-2.165-.928a2.52 2.52 0 0 1-.657-1.004l-21.526-55.072c-.257-.592-.387-1.172-.387-1.74 0-.85.303-1.578.91-2.183a2.977 2.977 0 0 1 2.183-.908c1.364 0 2.306.593 2.821 1.778l18.82 48.424 18.823-48.424c.514-1.185 1.455-1.778 2.821-1.778.85 0 1.577.304 2.183.908.605.605.908 1.333.908 2.183 0 .568-.13 1.148-.385 1.74l-21.528 55.072c-.155.413-.36.748-.618 1.004zM261.807 232.022c0-.85.304-1.578.908-2.183a2.98 2.98 0 0 1 2.183-.908c.851 0 1.579.304 2.185.908.605.605.908 1.333.908 2.183v55.653a2.98 2.98 0 0 1-.908 2.183 2.983 2.983 0 0 1-2.185.908 2.98 2.98 0 0 1-2.183-.908 2.98 2.98 0 0 1-.908-2.183v-55.653zM297.078 228.931c8.527 0 15.812 3.02 21.855 9.063 6.042 6.042 9.064 13.327 9.064 21.854 0 8.528-3.022 15.814-9.064 21.856-6.043 6.042-13.328 9.062-21.855 9.062h-12.367c-.85 0-1.578-.303-2.183-.908a2.975 2.975 0 0 1-.91-2.183v-55.653c0-.85.304-1.578.91-2.183a2.977 2.977 0 0 1 2.183-.908h12.367zm0 55.652c6.827 0 12.657-2.416 17.488-7.247 4.831-4.83 7.247-10.66 7.247-17.488 0-6.827-2.416-12.657-7.247-17.488-4.83-4.83-10.66-7.245-17.488-7.245h-9.276v49.468h9.276zM341.624 228.931h37.102c.849 0 1.577.304 2.183.908.605.605.908 1.333.908 2.183 0 .851-.303 1.579-.908 2.183a2.977 2.977 0 0 1-2.183.91h-34.011v21.642h24.735c.85 0 1.578.303 2.183.908.606.606.91 1.334.91 2.183 0 .85-.304 1.578-.91 2.185a2.977 2.977 0 0 1-2.183.908h-24.735v21.642h34.01c.85 0 1.578.303 2.184.908.605.606.908 1.334.908 2.184a2.98 2.98 0 0 1-.908 2.183 2.982 2.982 0 0 1-2.183.908h-37.102c-.85 0-1.578-.303-2.183-.908a2.975 2.975 0 0 1-.91-2.183v-55.653c0-.85.303-1.578.91-2.183a2.977 2.977 0 0 1 2.183-.908z"/></g><g fill="#3EB9C0" stroke="#3EB9BF" stroke-width=".517" stroke-miterlimit="10"><path d="M409.97 227.185c8.526 0 15.81 3.02 21.85 9.06 6.04 6.043 9.063 13.326 9.063 21.853 0 8.527-3.022 15.81-9.063 21.852-6.04 6.04-13.324 9.061-21.85 9.061h-12.368a2.982 2.982 0 0 1-2.183-.908 2.972 2.972 0 0 1-.906-2.183v-55.644c0-.85.3-1.577.906-2.183a2.982 2.982 0 0 1 2.183-.908h12.367zm0 55.644c6.825 0 12.653-2.415 17.484-7.246 4.831-4.83 7.243-10.658 7.243-17.485 0-6.826-2.412-12.655-7.243-17.485s-10.66-7.246-17.485-7.246h-9.274v49.462h9.274zM454.978 230.276c0-.85.3-1.577.906-2.183a2.982 2.982 0 0 1 2.183-.908c.853 0 1.577.303 2.184.908.606.606.91 1.334.91 2.183v24.73h30.912v-24.73c0-.85.304-1.577.907-2.183a2.982 2.982 0 0 1 2.183-.908c.852 0 1.58.303 2.183.908.606.606.91 1.334.91 2.183v55.644c0 .85-.304 1.578-.91 2.183a2.971 2.971 0 0 1-2.183.908 2.982 2.982 0 0 1-2.183-.908 2.984 2.984 0 0 1-.907-2.183V261.19H461.16v24.731c0 .85-.303 1.578-.91 2.183-.606.605-1.33.908-2.183.908a2.982 2.982 0 0 1-2.183-.908 2.971 2.971 0 0 1-.906-2.183v-55.644z"/></g><path fill="none" stroke="#CBBBA0" stroke-width="3.45" stroke-linecap="round" stroke-miterlimit="10" d="M29.957 308.98h699.446"/><g fill="#CBBBA0"><path d="M522.42 245.726V231.16c0-.313.206-.485.62-.514h4.08c1.388 0 2.497.364 3.322 1.092.829.726 1.243 1.875 1.243 3.443v.214c0 1.568-.417 2.72-1.253 3.455-.835.734-1.954 1.101-3.359 1.101h-3.19v5.774c0 .17-.074.307-.222.406a.89.89 0 0 1-.51.15.889.889 0 0 1-.521-.15.477.477 0 0 1-.21-.405zm1.463-6.994h3.19c1.008 0 1.782-.272 2.328-.814.546-.54.822-1.361.822-2.46v-.255c0-2.168-1.05-3.251-3.15-3.251h-3.19v6.78zM535.32 245.726V231.16c0-.313.186-.485.553-.514h3.925c1.431 0 2.587.329 3.466.984.88.657 1.32 1.733 1.32 3.229 0 2.368-1.151 3.745-3.456 4.129l3.413 6.332c.057.07.088.163.088.277 0 .186-.088.353-.266.502a.879.879 0 0 1-.577.224c-.266 0-.525-.249-.774-.747l-3.413-6.417h-2.817v6.567c0 .17-.074.306-.222.405s-.317.15-.509.15a.889.889 0 0 1-.522-.15.477.477 0 0 1-.209-.405zm1.462-7.786h3.016c2.216 0 3.325-1.006 3.325-3.015 0-1.983-1.109-2.973-3.325-2.973h-3.016v5.988zM548.082 241.833v-6.63c0-1.569.418-2.72 1.253-3.455.836-.735 1.954-1.102 3.359-1.102 1.401 0 2.52.367 3.355 1.102.836.734 1.254 1.886 1.254 3.455v6.63c0 1.583-.418 2.74-1.254 3.475-.835.734-1.954 1.101-3.355 1.101-1.405 0-2.523-.367-3.359-1.101s-1.253-1.892-1.253-3.475zm1.465 0c0 2.181 1.048 3.273 3.147 3.273 2.095 0 3.147-1.092 3.147-3.273v-6.63c0-2.168-1.052-3.251-3.147-3.251-2.099 0-3.147 1.083-3.147 3.25v6.63zM561.537 241.833v-6.63c0-1.569.418-2.72 1.254-3.455.835-.735 1.947-1.102 3.335-1.102 1.405 0 2.527.346 3.369 1.038.842.692 1.263 1.58 1.263 2.663 0 .485-.242.726-.731.726-.475 0-.718-.177-.731-.534-.209-1.725-1.257-2.587-3.147-2.587-2.098 0-3.146 1.083-3.146 3.25v6.63c0 1.099.273 1.92.818 2.46.546.542 1.321.814 2.328.814 1.004 0 1.78-.272 2.325-.814.549-.54.822-1.361.822-2.46v-2.545h-2.971a.472.472 0 0 1-.388-.181.696.696 0 0 1-.145-.438c0-.157.05-.297.145-.418a.471.471 0 0 1 .388-.182h3.9c.355 0 .533.185.533.556v3.209c0 1.583-.418 2.74-1.253 3.475-.836.734-1.954 1.101-3.356 1.101-1.404 0-2.523-.367-3.358-1.101s-1.254-1.892-1.254-3.475zM574.922 245.726V231.16c0-.313.185-.485.553-.514h3.924c1.432 0 2.588.329 3.467.984.88.657 1.32 1.733 1.32 3.229 0 2.368-1.152 3.745-3.456 4.129l3.413 6.332c.057.07.087.163.087.277 0 .186-.087.353-.266.502a.88.88 0 0 1-.576.224c-.266 0-.525-.249-.775-.747l-3.412-6.417h-2.817v6.567c0 .17-.074.306-.222.405a.89.89 0 0 1-.509.15.889.889 0 0 1-.522-.15.477.477 0 0 1-.209-.405zm1.462-7.786h3.015c2.217 0 3.326-1.006 3.326-3.015 0-1.983-1.109-2.973-3.326-2.973h-3.015v5.988zM587.865 245.726V231.18c0-.17.068-.301.2-.394a.801.801 0 0 1 .464-.14h7.89c.37 0 .556.207.556.62 0 .185-.05.347-.145.482a.473.473 0 0 1-.41.204h-7.092v5.88h3.48a.5.5 0 0 1 .41.182.727.727 0 0 1 .142.46c0 .386-.182.578-.552.578h-3.48v5.924h7.091c.162 0 .297.066.401.194a.737.737 0 0 1 .155.47c0 .427-.185.641-.556.641h-7.89a.763.763 0 0 1-.465-.15.485.485 0 0 1-.199-.405zM599.458 244.142c0-.17.07-.345.209-.524.141-.178.293-.268.455-.268.118 0 .266.095.444.278l.62.622c.223.227.573.431 1.051.61.482.178 1.038.266 1.675.266 1.047 0 1.863-.253 2.439-.758.576-.507.862-1.238.862-2.193 0-.642-.135-1.188-.407-1.636a2.92 2.92 0 0 0-1.055-1.038 7.932 7.932 0 0 0-1.418-.683l-1.597-.6a7.163 7.163 0 0 1-1.428-.716c-.422-.278-.769-.67-1.041-1.177-.273-.506-.411-1.109-.411-1.808 0-.744.144-1.386.434-1.924.287-.537.674-.943 1.162-1.216a5.96 5.96 0 0 1 1.496-.591 6.91 6.91 0 0 1 1.607-.182c.9 0 1.745.125 2.537.374s1.186.56 1.186.93a.913.913 0 0 1-.189.524c-.124.178-.276.268-.455.268-.087 0-.256-.066-.508-.198-.253-.133-.603-.264-1.051-.395a5.468 5.468 0 0 0-1.543-.2c-.93 0-1.698.193-2.305.579s-.91 1.019-.91 1.903c0 .613.183 1.127.546 1.54.36.414.816.714 1.361.9s1.14.405 1.773.661c.636.258 1.226.532 1.775.824.546.293 1 .756 1.36 1.39.365.635.543 1.416.543 2.343 0 1.462-.42 2.557-1.26 3.288-.842.73-1.98 1.096-3.416 1.096-1.283 0-2.361-.264-3.234-.795-.872-.529-1.307-1.027-1.307-1.494zM611.623 244.142c0-.17.07-.345.209-.524.142-.178.293-.268.455-.268.118 0 .266.095.445.278l.62.622c.222.227.572.431 1.05.61.482.178 1.038.266 1.675.266 1.048 0 1.863-.253 2.439-.758.576-.507.862-1.238.862-2.193 0-.642-.134-1.188-.407-1.636a2.92 2.92 0 0 0-1.055-1.038 7.93 7.93 0 0 0-1.418-.683l-1.597-.6a7.161 7.161 0 0 1-1.428-.716c-.421-.278-.768-.67-1.041-1.177-.273-.506-.411-1.109-.411-1.808 0-.744.145-1.386.434-1.924.287-.537.674-.943 1.163-1.216a5.962 5.962 0 0 1 1.495-.591 6.909 6.909 0 0 1 1.607-.182c.9 0 1.745.125 2.537.374s1.186.56 1.186.93a.912.912 0 0 1-.189.524c-.124.178-.276.268-.454.268-.088 0-.256-.066-.51-.198-.252-.133-.602-.264-1.05-.395a5.468 5.468 0 0 0-1.543-.2c-.93 0-1.698.193-2.305.579-.606.385-.91 1.019-.91 1.903 0 .613.183 1.127.547 1.54.36.414.815.714 1.36.9s1.14.405 1.773.661a18.94 18.94 0 0 1 1.775.824c.546.293 1 .756 1.361 1.39.364.635.543 1.416.543 2.343 0 1.462-.422 2.557-1.26 3.288-.843.73-1.981 1.096-3.417 1.096-1.283 0-2.361-.264-3.234-.795-.872-.529-1.307-1.027-1.307-1.494zM624.678 245.726V231.16c0-.342.242-.514.73-.514.49 0 .732.172.732.514v14.566c0 .17-.074.306-.222.405a.89.89 0 0 1-.51.15.889.889 0 0 1-.521-.15.477.477 0 0 1-.21-.405zM629.489 231.246c0-.172.087-.315.266-.428.175-.115.367-.172.576-.172.323 0 .515.121.576.364l4.1 13.132 4.076-13.132c.088-.243.273-.364.556-.364.206 0 .404.06.596.18s.29.265.29.433a.16.16 0 0 1-.027.064c-.02.027-.027.05-.027.063l-4.598 14.505c-.101.347-.398.518-.883.518-.472 0-.758-.17-.862-.513l-4.62-14.502a.374.374 0 0 1-.02-.148zM643.87 245.726V231.18c0-.17.068-.301.2-.394a.801.801 0 0 1 .464-.14h7.89c.37 0 .556.207.556.62 0 .185-.05.347-.145.482a.473.473 0 0 1-.41.204h-7.092v5.88h3.48a.5.5 0 0 1 .41.182.727.727 0 0 1 .142.46c0 .386-.182.578-.552.578h-3.48v5.924h7.091c.162 0 .297.066.401.194a.737.737 0 0 1 .155.47c0 .427-.185.641-.556.641h-7.89a.763.763 0 0 1-.465-.15.485.485 0 0 1-.198-.405zM660.759 231.246c0-.172.088-.315.266-.428.175-.115.367-.172.576-.172.324 0 .516.121.576.364l4.1 13.132 4.077-13.132c.087-.243.273-.364.556-.364.205 0 .404.06.596.18.192.12.29.265.29.433a.16.16 0 0 1-.027.064c-.02.027-.027.05-.027.063l-4.599 14.505c-.101.347-.397.518-.883.518-.471 0-.758-.17-.862-.513l-4.619-14.502a.375.375 0 0 1-.02-.148zM675.14 245.726V231.16c0-.342.243-.514.732-.514.488 0 .731.172.731.514v14.566c0 .17-.074.306-.222.405s-.317.15-.509.15a.889.889 0 0 1-.522-.15.477.477 0 0 1-.21-.405zM680.305 244.142c0-.17.071-.345.21-.524.14-.178.292-.268.454-.268.118 0 .266.095.445.278l.62.622c.222.227.572.431 1.05.61.483.178 1.038.266 1.675.266 1.048 0 1.863-.253 2.44-.758.575-.507.862-1.238.862-2.193 0-.642-.135-1.188-.408-1.636a2.919 2.919 0 0 0-1.054-1.038 7.93 7.93 0 0 0-1.419-.683l-1.597-.6a7.161 7.161 0 0 1-1.428-.716c-.421-.278-.768-.67-1.041-1.177-.273-.506-.411-1.109-.411-1.808 0-.744.145-1.386.435-1.924.286-.537.673-.943 1.162-1.216a5.963 5.963 0 0 1 1.496-.591 6.91 6.91 0 0 1 1.607-.182c.9 0 1.745.125 2.536.374s1.186.56 1.186.93a.913.913 0 0 1-.188.524c-.125.178-.277.268-.455.268-.088 0-.256-.066-.509-.198-.253-.133-.603-.264-1.051-.395a5.468 5.468 0 0 0-1.543-.2c-.93 0-1.698.193-2.304.579-.607.385-.91 1.019-.91 1.903 0 .613.182 1.127.546 1.54.36.414.815.714 1.36.9.547.184 1.14.405 1.773.661.637.258 1.226.532 1.775.824.546.293 1.001.756 1.361 1.39.364.635.543 1.416.543 2.343 0 1.462-.421 2.557-1.26 3.288-.842.73-1.981 1.096-3.416 1.096-1.284 0-2.362-.264-3.234-.795-.873-.529-1.308-1.027-1.308-1.494zM693.29 241.833V231.16c0-.342.245-.514.73-.514.489 0 .731.172.731.514v10.673c0 1.083.28 1.9.833 2.449.555.549 1.34.824 2.361.824 1.018 0 1.806-.275 2.358-.824.556-.55.833-1.366.833-2.45V231.16c0-.342.242-.514.73-.514.49 0 .732.172.732.514v10.673c0 1.583-.425 2.74-1.274 3.475-.849.734-1.977 1.101-3.379 1.101-1.405 0-2.53-.367-3.382-1.101-.85-.735-1.274-1.892-1.274-3.475zM705.9 245.682c0-.071.006-.12.023-.149l4.632-14.523c.101-.328.387-.492.86-.492.467 0 .76.165.878.495l4.623 14.556c0 .013.003.034.01.06.006.03.01.048.01.061 0 .164-.095.303-.287.418a1.147 1.147 0 0 1-.6.173c-.279 0-.464-.12-.552-.363l-1.02-3.294h-6.122l-1.027 3.297c-.061.24-.253.36-.58.36-.209 0-.4-.057-.58-.171-.178-.113-.269-.256-.269-.428zm2.836-4.277h5.363l-2.671-8.638-2.692 8.638zM720.305 245.726V231.16c0-.342.242-.514.73-.514.49 0 .732.172.732.514v13.816h6.317c.323 0 .488.214.488.642 0 .443-.165.663-.488.663h-7.116a.763.763 0 0 1-.465-.15.485.485 0 0 1-.198-.405z"/></g><g fill="#CBBBA0"><path d="M522.522 267.344v-14.588c0-.143.064-.264.188-.363.125-.1.283-.15.475-.15h3.925c1.402 0 2.527.367 3.37 1.101.841.735 1.263 1.887 1.263 3.455v6.502c0 1.582-.422 2.74-1.264 3.475-.842.735-1.967 1.102-3.369 1.102h-3.925a.708.708 0 0 1-.475-.16.485.485 0 0 1-.188-.374zm1.462-.772h3.126c1.004 0 1.782-.272 2.338-.822.553-.549.83-1.366.83-2.449V256.8c0-1.085-.277-1.897-.83-2.439-.556-.54-1.334-.812-2.338-.812h-3.126v13.024zM536.638 267.322v-14.545c0-.17.067-.302.198-.394a.801.801 0 0 1 .465-.14h7.89c.37 0 .556.207.556.62 0 .185-.05.347-.145.481a.473.473 0 0 1-.41.204H538.1v5.88h3.48a.5.5 0 0 1 .41.183.727.727 0 0 1 .142.46c0 .385-.182.577-.552.577h-3.48v5.924h7.091c.162 0 .297.066.401.194a.737.737 0 0 1 .155.47c0 .428-.185.642-.556.642h-7.89a.763.763 0 0 1-.465-.15.485.485 0 0 1-.198-.406zM549.426 263.43v-6.63c0-1.556.435-2.703 1.297-3.446.866-.74 1.984-1.111 3.359-1.111 1.401 0 2.513.345 3.335 1.037.819.693 1.23 1.537 1.23 2.535 0 .342-.054.57-.165.684-.111.115-.3.17-.566.17-.458 0-.701-.176-.731-.533a4.544 4.544 0 0 0-.088-.62 2.89 2.89 0 0 0-.266-.674 2.333 2.333 0 0 0-.522-.652c-.216-.185-.512-.339-.896-.46a4.445 4.445 0 0 0-1.331-.182c-2.13 0-3.19 1.083-3.19 3.251v6.63c0 2.182 1.091 3.273 3.277 3.273.62 0 1.14-.082 1.554-.246.41-.165.714-.402.906-.717.192-.314.323-.582.387-.802a5.22 5.22 0 0 0 .169-.866c.044-.37.286-.556.73-.556.267 0 .456.06.567.182.11.121.165.352.165.694 0 1.012-.418 1.868-1.253 2.567s-1.961 1.048-3.38 1.048c-1.357 0-2.462-.37-3.311-1.112-.852-.741-1.277-1.897-1.277-3.465zM562.902 267.322v-14.566c0-.341.242-.513.73-.513.49 0 .732.172.732.513v14.566c0 .17-.074.307-.222.406a.89.89 0 0 1-.51.15.889.889 0 0 1-.521-.15.477.477 0 0 1-.21-.406zM568.555 265.739c0-.17.07-.346.209-.524.141-.179.293-.268.454-.268.118 0 .267.094.445.278l.62.621c.222.228.573.432 1.051.61.482.179 1.038.266 1.675.266 1.047 0 1.863-.252 2.439-.758.576-.507.862-1.238.862-2.193 0-.642-.135-1.187-.408-1.635a2.92 2.92 0 0 0-1.054-1.038 7.93 7.93 0 0 0-1.418-.684l-1.597-.6a7.162 7.162 0 0 1-1.429-.716c-.42-.277-.768-.67-1.04-1.177-.274-.505-.412-1.108-.412-1.807 0-.745.145-1.387.435-1.924.286-.537.674-.943 1.162-1.216a5.96 5.96 0 0 1 1.496-.591 6.908 6.908 0 0 1 1.607-.182 8.4 8.4 0 0 1 2.537.374c.792.249 1.186.559 1.186.93a.913.913 0 0 1-.189.523c-.125.179-.276.268-.455.268-.087 0-.256-.066-.509-.197-.252-.133-.603-.265-1.05-.396a5.468 5.468 0 0 0-1.544-.199c-.93 0-1.698.192-2.304.578-.606.386-.91 1.02-.91 1.904 0 .613.182 1.126.546 1.54.36.414.816.713 1.361.899a33.4 33.4 0 0 1 1.772.662 18.94 18.94 0 0 1 1.776.823c.546.293 1 .757 1.36 1.39.365.635.543 1.417.543 2.343 0 1.462-.42 2.557-1.26 3.288-.842.731-1.98 1.097-3.416 1.097-1.283 0-2.362-.265-3.234-.795-.873-.53-1.307-1.028-1.307-1.494zM582.095 267.322v-14.566c0-.341.242-.513.73-.513.49 0 .732.172.732.513v14.566c0 .17-.074.307-.223.406a.89.89 0 0 1-.508.15.889.889 0 0 1-.523-.15.477.477 0 0 1-.208-.406zM588.452 263.43v-6.63c0-1.57.417-2.721 1.253-3.456.835-.734 1.954-1.101 3.359-1.101 1.401 0 2.52.367 3.355 1.101.836.735 1.253 1.887 1.253 3.455v6.63c0 1.584-.417 2.74-1.253 3.475-.835.735-1.954 1.102-3.355 1.102-1.405 0-2.524-.367-3.359-1.102-.836-.734-1.253-1.891-1.253-3.475zm1.465 0c0 2.18 1.048 3.272 3.147 3.272 2.095 0 3.146-1.091 3.146-3.273v-6.63c0-2.168-1.05-3.25-3.146-3.25-2.1 0-3.147 1.082-3.147 3.25v6.63zM602.57 267.322v-14.545c0-.356.243-.534.732-.534.414 0 .798.328 1.152.983l5.983 11.379v-11.849c0-.341.246-.513.731-.513.489 0 .735.172.735.513v14.566c0 .17-.074.307-.223.406-.148.1-.32.15-.512.15-.367 0-.694-.271-.973-.814l-6.162-11.57v11.828c0 .17-.074.307-.222.406a.89.89 0 0 1-.509.15.889.889 0 0 1-.522-.15.477.477 0 0 1-.21-.406zM616.444 262.755c0-.181.05-.333.155-.453a.51.51 0 0 1 .401-.178h5.76c.149 0 .277.06.388.178a.64.64 0 0 1 .165.453.567.567 0 0 1-.165.42.525.525 0 0 1-.387.168H617c-.37 0-.556-.195-.556-.588zM627.838 267.322v-14.395c0-.455.242-.684.73-.684.429 0 .82.328 1.177.983l3.81 7.102 3.814-7.102c.353-.655.744-.983 1.172-.983.488 0 .731.229.731.684v14.395c0 .17-.067.307-.209.406a.881.881 0 0 1-.522.15.89.89 0 0 1-.509-.15.466.466 0 0 1-.222-.406v-12.02l-3.679 6.716c-.162.3-.36.45-.596.45-.223 0-.415-.15-.576-.45l-3.66-6.78v12.084c0 .17-.073.307-.221.406a.89.89 0 0 1-.51.15.889.889 0 0 1-.521-.15.477.477 0 0 1-.21-.406zM643.13 267.278c0-.07.006-.12.023-.148l4.632-14.523c.101-.329.388-.492.86-.492.468 0 .76.165.879.495l4.622 14.555c0 .014.003.034.01.061.007.029.01.047.01.06 0 .164-.094.304-.286.418a1.147 1.147 0 0 1-.6.174c-.28 0-.465-.121-.553-.364l-1.02-3.293h-6.122l-1.027 3.296c-.06.241-.253.36-.58.36-.209 0-.4-.056-.58-.17-.178-.114-.269-.257-.269-.429zm2.836-4.277h5.363l-2.671-8.638-2.692 8.638zM658.02 267.322v-14.566c0-.341.243-.513.731-.513.489 0 .731.172.731.513v7.572l6.404-7.871c.105-.142.26-.214.465-.214.179 0 .357.079.533.236.178.156.266.32.266.491a.472.472 0 0 1-.111.32l-4.764 5.71 5.45 7.916c.062.113.092.206.092.278 0 .185-.091.352-.266.502a.879.879 0 0 1-.576.224c-.21 0-.395-.106-.556-.32l-5.118-7.422-1.819 2.224v4.92c0 .17-.074.307-.222.406a.89.89 0 0 1-.509.15.889.889 0 0 1-.522-.15.477.477 0 0 1-.209-.406zM671.297 267.322v-14.566c0-.341.243-.513.731-.513.489 0 .731.172.731.513v14.566c0 .17-.074.307-.222.406a.89.89 0 0 1-.509.15.889.889 0 0 1-.522-.15.477.477 0 0 1-.21-.406zM677.833 267.322v-14.545c0-.356.242-.534.73-.534.415 0 .8.328 1.153.983l5.983 11.379v-11.849c0-.341.246-.513.731-.513.489 0 .735.172.735.513v14.566c0 .17-.074.307-.223.406-.148.1-.32.15-.512.15-.367 0-.694-.271-.973-.814l-6.162-11.57v11.828c0 .17-.074.307-.223.406a.89.89 0 0 1-.508.15.889.889 0 0 1-.522-.15.477.477 0 0 1-.21-.406zM692.06 263.43v-6.63c0-1.57.417-2.721 1.253-3.456.835-.734 1.947-1.101 3.335-1.101 1.405 0 2.527.345 3.369 1.037.842.693 1.263 1.58 1.263 2.663 0 .486-.242.726-.73.726-.476 0-.718-.176-.732-.534-.209-1.724-1.256-2.587-3.146-2.587-2.1 0-3.147 1.083-3.147 3.251v6.63c0 1.098.273 1.919.819 2.46.546.542 1.32.813 2.328.813 1.004 0 1.778-.271 2.324-.813.55-.541.822-1.362.822-2.46v-2.545h-2.971a.471.471 0 0 1-.388-.182.695.695 0 0 1-.144-.438c0-.157.05-.296.144-.418a.471.471 0 0 1 .388-.182h3.901c.354 0 .532.186.532.556v3.21c0 1.583-.417 2.74-1.253 3.474-.835.735-1.954 1.102-3.355 1.102-1.405 0-2.524-.367-3.36-1.102-.835-.734-1.252-1.891-1.252-3.475zM712.074 267.322v-14.566c0-.341.243-.513.731-.513.489 0 .732.172.732.513v14.566c0 .17-.075.307-.223.406a.89.89 0 0 1-.509.15.889.889 0 0 1-.522-.15.477.477 0 0 1-.209-.406zM718.614 267.322v-14.545c0-.356.242-.534.73-.534.415 0 .799.328 1.153.983l5.983 11.379v-11.849c0-.341.246-.513.731-.513.489 0 .734.172.734.513v14.566c0 .17-.074.307-.222.406-.148.1-.32.15-.512.15-.367 0-.694-.271-.974-.814l-6.161-11.57v11.828c0 .17-.074.307-.223.406a.89.89 0 0 1-.508.15.889.889 0 0 1-.523-.15.477.477 0 0 1-.208-.406z"/></g><g fill="#CBBBA0"><path d="M522.525 290.155v-14.588c0-.143.064-.264.189-.363.125-.1.283-.15.475-.15h3.925c1.401 0 2.526.367 3.369 1.101.842.735 1.263 1.887 1.263 3.455v6.502c0 1.582-.421 2.74-1.263 3.475-.843.735-1.968 1.102-3.37 1.102h-3.924a.708.708 0 0 1-.475-.16.485.485 0 0 1-.189-.374zm1.462-.772h3.127c1.004 0 1.782-.272 2.338-.822.552-.549.828-1.366.828-2.449v-6.502c0-1.085-.276-1.897-.828-2.439-.556-.54-1.334-.812-2.338-.812h-3.127v13.024zM536.708 290.133v-14.566c0-.341.243-.513.731-.513.489 0 .731.172.731.513v14.566c0 .17-.074.307-.222.406a.89.89 0 0 1-.509.15.889.889 0 0 1-.522-.15.477.477 0 0 1-.209-.406zM543.136 286.24v-6.63c0-1.568.418-2.72 1.254-3.455.835-.734 1.947-1.101 3.335-1.101 1.405 0 2.526.345 3.369 1.037.842.693 1.263 1.58 1.263 2.663 0 .486-.243.726-.731.726-.475 0-.718-.176-.731-.534-.209-1.724-1.257-2.587-3.147-2.587-2.099 0-3.146 1.083-3.146 3.251v6.63c0 1.098.273 1.919.818 2.46.546.542 1.321.813 2.328.813 1.004 0 1.78-.271 2.325-.813.549-.541.822-1.362.822-2.46v-2.545h-2.971a.471.471 0 0 1-.388-.182.696.696 0 0 1-.145-.438c0-.157.05-.296.145-.418a.471.471 0 0 1 .388-.182h3.9c.354 0 .533.186.533.556v3.21c0 1.583-.418 2.74-1.253 3.474-.836.735-1.954 1.102-3.356 1.102-1.405 0-2.523-.367-3.358-1.102-.836-.734-1.254-1.891-1.254-3.475zM557.077 290.133v-14.566c0-.341.242-.513.73-.513.49 0 .732.172.732.513v14.566c0 .17-.074.307-.222.406a.89.89 0 0 1-.51.15.889.889 0 0 1-.521-.15.477.477 0 0 1-.21-.406zM562.329 275.706a.76.76 0 0 1 .142-.452.483.483 0 0 1 .41-.2h8.888c.178 0 .313.064.41.19a.719.719 0 0 1 .146.441.8.8 0 0 1-.145.474.478.478 0 0 1-.411.2h-3.7v13.772a.467.467 0 0 1-.222.408c-.148.1-.32.15-.512.15a.87.87 0 0 1-.519-.15.473.473 0 0 1-.212-.408V276.36h-3.722a.488.488 0 0 1-.398-.19.7.7 0 0 1-.155-.463zM574.892 290.09c0-.072.006-.12.023-.149l4.633-14.523c.1-.329.387-.492.859-.492.468 0 .761.165.879.495l4.622 14.555c0 .014.003.034.01.061.007.029.01.047.01.06 0 .164-.094.304-.286.418a1.147 1.147 0 0 1-.6.174c-.28 0-.465-.121-.552-.364l-1.021-3.293h-6.121l-1.028 3.296c-.06.241-.253.36-.58.36-.208 0-.4-.056-.579-.17-.178-.114-.27-.257-.27-.429zm2.836-4.278h5.364l-2.672-8.638-2.692 8.638zM589.853 290.133v-14.566c0-.341.243-.513.731-.513.489 0 .731.172.731.513v13.816h6.317c.323 0 .488.214.488.642 0 .443-.165.664-.488.664h-7.115a.763.763 0 0 1-.465-.15.485.485 0 0 1-.199-.406zM608.093 290.133v-14.566c0-.341.242-.513.73-.513.49 0 .732.172.732.513v6.395h6.404v-6.395c0-.341.246-.513.731-.513.489 0 .734.172.734.513v14.566c0 .17-.074.307-.222.406-.148.1-.32.15-.512.15a.87.87 0 0 1-.519-.15.472.472 0 0 1-.212-.406v-6.952h-6.404v6.952c0 .17-.074.307-.223.406a.89.89 0 0 1-.508.15.889.889 0 0 1-.523-.15.477.477 0 0 1-.208-.406zM622.498 286.24v-10.673c0-.342.246-.513.731-.513.489 0 .731.171.731.513v10.673c0 1.083.28 1.9.832 2.45.556.549 1.341.823 2.362.823 1.017 0 1.806-.274 2.358-.824.556-.549.832-1.366.832-2.449v-10.673c0-.342.243-.513.731-.513.489 0 .731.171.731.513v10.673c0 1.584-.424 2.74-1.273 3.475-.849.735-1.978 1.102-3.38 1.102-1.404 0-2.53-.367-3.381-1.102-.85-.734-1.274-1.891-1.274-3.475zM636.883 290.133v-14.395c0-.455.243-.684.731-.684.428 0 .82.328 1.176.983l3.81 7.102 3.814-7.102c.354-.655.745-.983 1.172-.983.489 0 .731.229.731.684v14.395c0 .17-.067.307-.208.406a.881.881 0 0 1-.523.15.89.89 0 0 1-.508-.15.466.466 0 0 1-.223-.406v-12.02l-3.678 6.716c-.162.3-.361.45-.597.45-.222 0-.414-.15-.576-.45l-3.658-6.78v12.084c0 .17-.075.307-.223.406a.89.89 0 0 1-.509.15.889.889 0 0 1-.522-.15.477.477 0 0 1-.209-.406zM652.239 290.09c0-.072.007-.12.024-.149l4.632-14.523c.1-.329.387-.492.859-.492.468 0 .761.165.88.495l4.621 14.555c0 .014.004.034.01.061.007.029.01.047.01.06 0 .164-.094.304-.286.418a1.147 1.147 0 0 1-.6.174c-.28 0-.464-.121-.552-.364l-1.02-3.293h-6.122l-1.028 3.296c-.06.241-.252.36-.58.36-.208 0-.4-.056-.579-.17-.178-.114-.269-.257-.269-.429zm2.837-4.278h5.363l-2.672-8.638-2.691 8.638zM667.2 290.133v-14.545c0-.356.243-.534.731-.534.415 0 .799.328 1.153.983l5.983 11.379v-11.849c0-.342.246-.513.73-.513.49 0 .735.171.735.513v14.566c0 .17-.074.307-.222.406-.148.1-.32.15-.512.15-.367 0-.694-.271-.974-.814l-6.161-11.57v11.828c0 .17-.075.307-.223.406a.89.89 0 0 1-.509.15.889.889 0 0 1-.522-.15.477.477 0 0 1-.209-.406zM681.673 290.133v-14.566c0-.341.243-.513.731-.513.489 0 .731.172.731.513v14.566c0 .17-.074.307-.222.406a.89.89 0 0 1-.509.15.889.889 0 0 1-.522-.15.477.477 0 0 1-.209-.406zM686.925 275.706a.76.76 0 0 1 .142-.452.483.483 0 0 1 .41-.2h8.888c.179 0 .313.064.411.19a.719.719 0 0 1 .145.441.8.8 0 0 1-.145.474.478.478 0 0 1-.41.2h-3.7v13.772a.467.467 0 0 1-.222.408c-.149.1-.32.15-.512.15a.87.87 0 0 1-.52-.15.473.473 0 0 1-.211-.408V276.36h-3.723a.488.488 0 0 1-.398-.19.7.7 0 0 1-.155-.463zM700.708 290.133v-14.566c0-.341.242-.513.73-.513.49 0 .732.172.732.513v14.566c0 .17-.074.307-.223.406a.89.89 0 0 1-.508.15.889.889 0 0 1-.522-.15.477.477 0 0 1-.21-.406zM707.314 290.133v-14.545c0-.17.068-.302.199-.394a.801.801 0 0 1 .465-.14h7.89c.37 0 .556.207.556.62 0 .185-.05.347-.145.481a.473.473 0 0 1-.411.204h-7.092v5.88h3.48a.5.5 0 0 1 .411.183.726.726 0 0 1 .142.46c0 .385-.182.577-.553.577h-3.48v5.924h7.092c.162 0 .296.066.4.194a.737.737 0 0 1 .156.47c0 .428-.186.642-.556.642h-7.89a.763.763 0 0 1-.465-.15.485.485 0 0 1-.199-.406zM719.46 288.55c0-.17.07-.346.208-.524.142-.179.293-.268.455-.268.118 0 .266.094.445.278l.62.621c.222.228.572.432 1.05.61.482.179 1.038.266 1.675.266 1.048 0 1.863-.252 2.439-.758.576-.507.862-1.238.862-2.193 0-.642-.134-1.187-.407-1.635a2.92 2.92 0 0 0-1.055-1.038 7.932 7.932 0 0 0-1.418-.684l-1.597-.6a7.166 7.166 0 0 1-1.428-.716c-.421-.277-.768-.67-1.041-1.177-.273-.505-.411-1.108-.411-1.807 0-.745.145-1.387.434-1.924.287-.537.674-.943 1.163-1.216a5.96 5.96 0 0 1 1.495-.592 6.908 6.908 0 0 1 1.607-.181 8.4 8.4 0 0 1 2.537.373c.792.25 1.186.56 1.186.93a.913.913 0 0 1-.189.524c-.124.179-.276.268-.454.268-.088 0-.257-.066-.51-.197-.252-.133-.602-.265-1.05-.396a5.467 5.467 0 0 0-1.543-.199c-.93 0-1.698.192-2.305.578s-.91 1.02-.91 1.904c0 .613.183 1.126.547 1.54.36.414.815.713 1.36.899.546.185 1.14.406 1.773.662.636.257 1.226.532 1.775.823.546.293 1 .757 1.361 1.39.364.635.543 1.417.543 2.343 0 1.462-.422 2.557-1.26 3.288-.843.731-1.981 1.097-3.417 1.097-1.283 0-2.361-.265-3.234-.795-.872-.53-1.307-1.028-1.307-1.494z"/></g><path fill="none" stroke="#CBBBA0" stroke-width="1.207" stroke-miterlimit="10" d="M378.233 309.468l40.178 139.875"/><path fill="#CBBBA0" d="M380.338 211.16l76.406-140.196"/><path fill="none" stroke="#CBBBA0" stroke-width="1.207" stroke-miterlimit="10" d="M380.338 211.16l76.406-140.196M392.963 211.972l59.022-45.758"/><path fill="#CBBBA0" d="M367.852 205.239L357.055 83.044"/><path fill="none" stroke="#CBBBA0" stroke-width="1.207" stroke-miterlimit="10" d="M368.514 212.721L357.055 83.044M347.481 211.753L451.686 99.35M356.051 202.508L451.686 99.35"/><path fill="#CBBBA0" d="M340.143 202.018l-33.822-84.55"/><path fill="none" stroke="#CBBBA0" stroke-width="1.207" stroke-miterlimit="10" d="M343.163 209.925l-36.842-92.457M395.797 310.628l81.184 178.864M403.87 309.255l24.67 87.835"/><path fill="#CBBBA0" d="M333.934 321.694l9.228 91.93"/><path fill="none" stroke="#CBBBA0" stroke-width="1.207" stroke-miterlimit="10" d="M332.635 308.755l10.527 104.869M346.942 308.166L335.036 438.76"/><path fill="#CBBBA0" d="M320.785 316.83L183.726 456.88"/><path fill="none" stroke="#CBBBA0" stroke-width="1.207" stroke-miterlimit="10" d="M328.191 309.263L183.726 456.88M260.877 310.458l-22.797 40.731M305.96 309.54l-43.122 142.51M266.471 308.635l-112.75 29.268M484.934 211.16l32.161-9.143M325.299 211.16l-95.678-51.419M296.735 211.656l-38.43-150.355"/><path fill="#CBBBA0" d="M320.785 208.598L295.761 55.649"/><path fill="none" stroke="#CBBBA0" stroke-width="1.207" stroke-miterlimit="10" d="M320.785 208.598L295.761 55.649M233.685 211.16l-80.454-40.547M440.103 210.15L544.876 57.817M508.712 211.16l47.087-25.503M212.439 308.951l-20.258 8.234M494.674 309.373l115.428 33.157M441.458 309.373l79.263 73.272M322.185 210.974l17.959-111.626M428.54 210.58L598.626 83.042M100.609 308.512l-5.664 2.101"/><path fill="#CBBBA0" d="M331.101 320.934l-129.26 58.567"/><path fill="none" stroke="#CBBBA0" stroke-width="1.207" stroke-miterlimit="10" d="M356.358 309.491l-154.517 70.01M367.108 309.049l-16.094 73.593M452.062 211.386l92.815-66.088M384.906 211.16l10.408-67.724M472.081 308.166l54.126 38.994M434.519 309.263l115.192 71.822M303.635 211.753l-7.102-107.573"/><path fill="#CBBBA0" d="M340.854 322.678l-38.717 89.508"/><path fill="none" stroke="#CBBBA0" stroke-width="1.207" stroke-miterlimit="10" d="M346.711 309.138l-44.574 103.048M398.017 211.16l10.596-192.739"/><path fill="#CBBBA0" d="M313.872 212.721l-59.488-74.722"/><path fill="none" stroke="#CBBBA0" stroke-width="1.207" stroke-miterlimit="10" d="M312.629 211.16l-58.245-73.161M364.986 212.354l51.231-141.388M414.103 309.491l26.403 54.31M282.766 211.753l-14.793-32.883"/><path fill="#CBBBA0" d="M318.339 209.915L191.122 57.818"/><path fill="none" stroke="#CBBBA0" stroke-width="1.207" stroke-miterlimit="10" d="M318.339 209.915L191.122 57.818"/><path fill="#CBBBA0" d="M373.536 207.227l124.002-53.63"/><path fill="none" stroke="#CBBBA0" stroke-width="1.207" stroke-miterlimit="10" d="M362.784 211.877l134.754-58.28M359.428 211.972l-14.263-62.866M345.798 308.166l37.486 59.935M377.913 309.468l14.875 99.905M284.296 309.263l-8.775 28.641"/><path fill="#CBBBA0" d="M326.243 319.277l-13.955 53.655"/><path fill="none" stroke="#CBBBA0" stroke-width="1.207" stroke-miterlimit="10" d="M328.98 308.755l-16.692 64.177"/><path fill="#CBBBA0" d="M320.785 208.598l-31.331-55.003"/><path fill="none" stroke="#CBBBA0" stroke-width="1.207" stroke-miterlimit="10" d="M320.785 208.598l-31.331-55.003M226.335 310.388l-38.836 23.891M459.386 210.744l16.041-8.727M437.548 309.049l11.118 15.721M395.797 210.808l18.381-30.397"/><path fill="#CBBBA0" d="M362.098 203.252l19.964-16.408"/><path fill="none" stroke="#CBBBA0" stroke-width="1.207" stroke-miterlimit="10" d="M352.476 211.16l29.586-24.316M403.87 309.049l18.17 3.46"/><path fill="#CBBBA0" d="M372.08 318.879l-4.229 31.256"/><path fill="none" stroke="#CBBBA0" stroke-width="1.207" stroke-miterlimit="10" d="M374.04 308.166l-5.68 41.969M325.732 309.263l-15.942 28.642M274.674 308.755l-6.7 10.437M267.973 211.656l-7.098-3.056"/><path fill="#CBBBA0" d="M335.036 203.376l-13.541-26.27"/><path fill="none" stroke="#CBBBA0" stroke-width="1.207" stroke-miterlimit="10" d="M338.356 209.818l-16.861-32.712M335.984 211.427l7.179-23.451"/><path fill="#CBBBA0" d="M232.91 159.741a3.289 3.289 0 0 1-6.575 0c0-1.814 1.473-3.287 3.287-3.287s3.288 1.473 3.288 3.287M258.305 138a3.918 3.918 0 1 1-7.838 0 3.918 3.918 0 1 1 7.838 0M261.785 61.3a3.483 3.483 0 0 1-6.965 0 3.482 3.482 0 1 1 6.965 0M297.93 55.649a2.17 2.17 0 1 1-4.338 0 2.17 2.17 0 0 1 4.339 0M301.667 104.18a5.133 5.133 0 0 1-5.134 5.133 5.132 5.132 0 0 1-5.133-5.133 5.132 5.132 0 0 1 5.133-5.134 5.132 5.132 0 0 1 5.134 5.134M308.738 117.467a2.413 2.413 0 0 1-2.415 2.415 2.413 2.413 0 0 1-2.415-2.415 2.413 2.413 0 0 1 2.415-2.415 2.413 2.413 0 0 1 2.415 2.415M343.162 99.349a3.02 3.02 0 0 1-6.037 0 3.02 3.02 0 0 1 6.037 0M359.77 83.043a2.717 2.717 0 0 1-5.433 0 2.717 2.717 0 1 1 5.434 0M411.775 18.047a3.162 3.162 0 1 1-6.325-.005 3.162 3.162 0 0 1 6.325.005M418.41 70.964c0 1.21-.98 2.19-2.194 2.19a2.192 2.192 0 1 1 2.194-2.19M397.658 143.436a1.861 1.861 0 1 1-3.723 0 1.862 1.862 0 1 1 3.723 0M454.707 99.349a3.02 3.02 0 1 1-3.022-3.019 3.023 3.023 0 0 1 3.022 3.019M460.067 70.964a3.321 3.321 0 1 1-6.646.002 3.321 3.321 0 0 1 6.646-.002M454.258 166.527a2.413 2.413 0 0 1-2.415 2.415 2.413 2.413 0 0 1-2.415-2.415 2.413 2.413 0 0 1 2.415-2.415 2.413 2.413 0 0 1 2.415 2.415M549.71 57.818a4.834 4.834 0 0 1-9.666 0 4.834 4.834 0 0 1 9.666 0M547.295 145.3a2.416 2.416 0 0 1-4.833 0 2.416 2.416 0 1 1 4.833 0M601.65 83.043a3.02 3.02 0 1 1-3.022-3.019 3.023 3.023 0 0 1 3.021 3.019M520.317 202.018a3.221 3.221 0 1 1-6.443.002 3.221 3.221 0 0 1 6.443-.002M613.727 342.53a3.625 3.625 0 1 1-7.246.002 3.625 3.625 0 0 1 7.246-.003M529.177 347.162a2.97 2.97 0 0 1-2.97 2.97 2.971 2.971 0 1 1 2.97-2.97M444.806 363.8a4.3 4.3 0 1 1-8.601-.003 4.3 4.3 0 0 1 8.6.004M355.226 382.643a4.21 4.21 0 1 1-8.42.003 4.21 4.21 0 0 1 8.42-.003M304.844 412.187a2.705 2.705 0 1 1-5.41 0 2.705 2.705 0 0 1 5.41 0M205.467 379.5c0 2.001-1.625 3.622-3.626 3.622-2 0-3.626-1.621-3.626-3.622 0-2 1.625-3.622 3.626-3.622 2 0 3.626 1.621 3.626 3.622M242.91 351.19a4.831 4.831 0 1 1-9.663-.003 4.831 4.831 0 0 1 9.662.004M158.4 170.613a5.166 5.166 0 0 1-10.332 0 5.166 5.166 0 1 1 10.332 0M158.349 337.904a4.627 4.627 0 0 1-9.256 0 4.627 4.627 0 0 1 4.626-4.626c2.557 0 4.63 2.07 4.63 4.626M188.858 456.88a5.135 5.135 0 0 1-5.133 5.133 5.133 5.133 0 1 1 0-10.267 5.135 5.135 0 0 1 5.133 5.133M265.545 452.048a2.707 2.707 0 0 1-2.705 2.705 2.702 2.702 0 0 1-2.704-2.705 2.702 2.702 0 0 1 2.704-2.704c1.49 0 2.705 1.21 2.705 2.704M337.125 438.761a3.19 3.19 0 0 1-3.192 3.191 3.191 3.191 0 1 1 0-6.382 3.19 3.19 0 0 1 3.192 3.191M347.09 413.626a3.925 3.925 0 1 1-7.852 0 3.927 3.927 0 0 1 7.852 0M421.732 449.343a3.322 3.322 0 1 1-6.643.001 3.322 3.322 0 0 1 6.643-.001M480.604 489.492a3.625 3.625 0 1 1-7.246-.005 3.625 3.625 0 0 1 7.246.005M555.518 381.085a5.81 5.81 0 1 1-11.62 0 5.81 5.81 0 0 1 11.62 0M524.646 382.643a3.928 3.928 0 0 1-3.926 3.926 3.923 3.923 0 0 1-3.923-3.926 3.923 3.923 0 0 1 3.923-3.926 3.928 3.928 0 0 1 3.926 3.926M558.817 185.657a3.02 3.02 0 0 1-6.037 0 3.02 3.02 0 0 1 6.037 0M271.697 178.869a3.722 3.722 0 1 1-7.444 0 3.722 3.722 0 0 1 7.444 0M97.29 311.288a3.017 3.017 0 0 1-3.018 3.017 3.018 3.018 0 1 1 3.018-3.017M191.122 334.28a3.625 3.625 0 1 1-7.25-.004 3.625 3.625 0 0 1 7.25.005M279.297 337.904a3.775 3.775 0 0 1-7.548 0 3.775 3.775 0 1 1 7.548 0M315.307 372.932a3.02 3.02 0 0 1-6.037 0 3.02 3.02 0 0 1 6.037 0M386.382 368.1a3.092 3.092 0 0 1-3.095 3.094 3.094 3.094 0 1 1 3.094-3.094M395.602 409.37a2.816 2.816 0 1 1-5.634 0 2.816 2.816 0 0 1 5.634 0M433.22 397.09c0 2.586-2.094 4.68-4.678 4.68a4.681 4.681 0 1 1 0-9.362 4.678 4.678 0 0 1 4.678 4.681M452.062 324.769c0 1.873-1.518 3.394-3.394 3.394s-3.398-1.52-3.398-3.394c0-1.877 1.52-3.398 3.398-3.398s3.394 1.521 3.394 3.398M476.982 202.018a1.556 1.556 0 1 1-1.556-1.56c.86 0 1.556.698 1.556 1.56M349.88 153.595a4.711 4.711 0 0 1-9.421 0 4.711 4.711 0 1 1 9.42 0M500.827 153.595a3.287 3.287 0 0 1-6.572 0 3.286 3.286 0 1 1 6.572 0M292.314 153.595a2.86 2.86 0 1 1-5.718.001 2.86 2.86 0 0 1 5.718 0M197.462 57.818a6.337 6.337 0 0 1-6.34 6.34 6.337 6.337 0 0 1-6.341-6.34 6.339 6.339 0 0 1 6.34-6.34c3.505 0 6.341 2.839 6.341 6.34M196.86 317.185a4.675 4.675 0 0 1-4.679 4.678 4.678 4.678 0 1 1 0-9.356 4.677 4.677 0 0 1 4.678 4.678M264.251 208.598a3.375 3.375 0 0 1-3.377 3.374 3.372 3.372 0 0 1-3.37-3.374 3.372 3.372 0 0 1 3.37-3.374 3.375 3.375 0 0 1 3.377 3.374M323.534 177.105a2.038 2.038 0 1 1-4.076.001 2.038 2.038 0 0 1 4.076 0M344.523 187.977c0 .748-.611 1.359-1.363 1.359a1.359 1.359 0 1 1 1.363-1.36M384.529 186.845a2.465 2.465 0 0 1-4.93 0 2.462 2.462 0 0 1 2.463-2.463c1.363 0 2.467 1.1 2.467 2.463M419.613 180.411a5.435 5.435 0 1 1-10.87-.002 5.435 5.435 0 0 1 10.87.002M427.186 312.912a4.746 4.746 0 0 1-9.49 0 4.748 4.748 0 0 1 4.747-4.746 4.746 4.746 0 0 1 4.743 4.746M370.723 350.133a2.87 2.87 0 1 1 0 0M313.61 337.904a3.82 3.82 0 0 1-7.642 0 3.82 3.82 0 0 1 3.822-3.819 3.818 3.818 0 0 1 3.82 3.819M273.55 319.191a5.576 5.576 0 1 1-11.153 0 5.576 5.576 0 1 1 11.153 0"/><path fill="none" stroke="#CBBBA0" stroke-width="3.45" stroke-linecap="round" stroke-miterlimit="10" d="M29.403 211.16h699.526"/></svg>