<svg version="1.2" baseProfile="tiny" xmlns="http://www.w3.org/2000/svg" viewBox="0 0 48 48"><path fill="#CBBBA0" d="M26.258 23.809l7.724-14.174"/><path fill="none" stroke="#CBBBA0" stroke-width=".222" stroke-miterlimit="10" d="M26.258 23.809l7.724-14.174M27.534 23.891l5.967-4.626"/><path fill="#CBBBA0" d="M24.995 23.21l-1.091-12.354"/><path fill="none" stroke="#CBBBA0" stroke-width=".22" stroke-miterlimit="10" d="M25.043 23.75l-1.139-12.894"/><path fill="none" stroke="#CBBBA0" stroke-width=".222" stroke-miterlimit="10" d="M22.936 23.869l10.535-11.364M23.802 22.934l9.669-10.429"/><path fill="#CBBBA0" d="M22.194 22.884l-3.419-8.548"/><path fill="none" stroke="#CBBBA0" stroke-width=".222" stroke-miterlimit="10" d="M22.499 23.684l-3.724-9.348M20.693 23.809l-9.672-5.199M17.806 23.859L13.92 8.658"/><path fill="#CBBBA0" d="M20.237 23.55l-2.53-15.463"/><path fill="none" stroke="#CBBBA0" stroke-width=".222" stroke-miterlimit="10" d="M20.237 23.55l-2.53-15.463M11.431 23.809l-8.133-4.1M32.3 23.706l10.592-15.4M39.236 23.809l4.761-2.579M20.379 23.79l1.815-11.285"/><path fill="none" stroke="#CBBBA0" stroke-width=".22" stroke-miterlimit="10" d="M31.131 23.75l16.846-12.632"/><path fill="none" stroke="#CBBBA0" stroke-width=".222" stroke-miterlimit="10" d="M33.509 23.831l9.383-6.681M26.72 23.809l1.052-6.847M18.503 23.869l-.718-10.876M28.045 23.809l1.071-19.486"/><path fill="#CBBBA0" d="M19.538 23.966l-6.014-7.554"/><path fill="none" stroke="#CBBBA0" stroke-width=".222" stroke-miterlimit="10" d="M19.412 23.809l-5.888-7.397"/><path fill="none" stroke="#CBBBA0" stroke-width=".22" stroke-miterlimit="10" d="M24.801 23.666l5.084-14.031"/><path fill="none" stroke="#CBBBA0" stroke-width=".222" stroke-miterlimit="10" d="M16.393 23.869l-1.495-3.325"/><path fill="#CBBBA0" d="M19.99 23.683L7.128 8.306"/><path fill="none" stroke="#CBBBA0" stroke-width=".222" stroke-miterlimit="10" d="M19.99 23.683L7.128 8.306"/><path fill="#CBBBA0" d="M25.57 23.411l12.537-5.422"/><path fill="none" stroke="#CBBBA0" stroke-width=".222" stroke-miterlimit="10" d="M24.483 23.881l13.624-5.892M24.144 23.891l-1.442-6.356"/><path fill="#CBBBA0" d="M20.237 23.55l-3.167-5.561"/><path fill="none" stroke="#CBBBA0" stroke-width=".222" stroke-miterlimit="10" d="M20.237 23.55l-3.167-5.561M27.821 23.773l1.858-3.073"/><path fill="#CBBBA0" d="M24.414 23.009l2.018-1.659"/><path fill="none" stroke="#CBBBA0" stroke-width=".222" stroke-miterlimit="10" d="M23.441 23.809l2.991-2.459"/><path fill="#CBBBA0" d="M21.678 23.022l-1.369-2.656"/><path fill="none" stroke="#CBBBA0" stroke-width=".222" stroke-miterlimit="10" d="M22.013 23.673l-1.704-3.307M21.774 23.836l.725-2.371"/><path fill="#CBBBA0" d="M11.353 18.61a.333.333 0 1 1-.665 0 .333.333 0 0 1 .665 0M13.92 16.412a.396.396 0 1 1-.793 0 .396.396 0 0 1 .793 0M14.272 8.658a.352.352 0 1 1-.703 0 .352.352 0 0 1 .703 0M17.926 8.087a.22.22 0 1 1-.438 0 .22.22 0 0 1 .438 0M18.304 12.993a.519.519 0 1 1-1.038 0 .519.519 0 0 1 1.038 0M19.02 14.336a.244.244 0 1 1-.489 0 .244.244 0 0 1 .488 0M22.5 12.505a.305.305 0 1 1-.611 0 .305.305 0 0 1 .61 0M24.178 10.856a.275.275 0 1 1-.55 0 .275.275 0 0 1 .55 0M30.107 9.635a.221.221 0 1 1-.443 0 .221.221 0 0 1 .443 0M28.009 16.962a.188.188 0 1 1-.377 0 .188.188 0 0 1 .377 0M33.776 12.505a.306.306 0 1 1-.61-.001.306.306 0 0 1 .61 0M34.318 9.635a.336.336 0 1 1-.672 0 .336.336 0 0 1 .672 0M33.731 19.296a.244.244 0 1 1-.488 0 .244.244 0 0 1 .488 0M43.381 8.306a.489.489 0 1 1-.977 0 .489.489 0 0 1 .977 0M43.137 17.15a.244.244 0 1 1-.489 0 .244.244 0 0 1 .489 0M3.82 19.71a.523.523 0 1 1-1.045 0 .523.523 0 0 1 1.045 0M44.302 21.23a.305.305 0 1 1-.61 0 .305.305 0 0 1 .61 0M15.274 20.544a.376.376 0 1 1-.752 0 .376.376 0 0 1 .752 0M23.178 17.989a.476.476 0 1 1-.952 0 .476.476 0 0 1 .952 0M38.44 17.989a.333.333 0 1 1-.666 0 .333.333 0 0 1 .665 0M17.359 17.989a.29.29 0 1 1-.578 0 .29.29 0 0 1 .578 0M7.77 8.306a.64.64 0 1 1-1.282 0 .64.64 0 0 1 1.281 0M20.515 20.366a.206.206 0 1 1-.412 0 .206.206 0 0 1 .412 0M22.637 21.465a.138.138 0 0 1-.275 0 .137.137 0 1 1 .275 0M26.681 21.35a.25.25 0 1 1-.498 0 .25.25 0 0 1 .498 0M30.228 20.7a.55.55 0 1 1-1.099 0 .55.55 0 0 1 1.1 0M47.798 23.93H.228a.179.179 0 0 1 0-.358h47.57a.179.179 0 0 1 0 .358zM47.793 26.484H.233a.184.184 0 1 1 0-.367h47.56a.184.184 0 0 1 0 .367zM29.452 4.311a.336.336 0 1 1-.672 0 .336.336 0 0 1 .672 0"/><path fill="none" stroke="#CBBBA0" stroke-width=".224" stroke-miterlimit="10" d="M26.311 26.25l4.127 14.368M28.116 26.37l8.338 18.372M28.945 26.229l2.534 9.021"/><path fill="#CBBBA0" d="M21.761 27.506l.948 9.443"/><path fill="none" stroke="#CBBBA0" stroke-width=".224" stroke-miterlimit="10" d="M21.628 26.177l1.081 10.772M23.097 26.117l-1.223 13.414"/><path fill="#CBBBA0" d="M20.411 27.007L6.333 41.392"/><path fill="none" stroke="#CBBBA0" stroke-width=".224" stroke-miterlimit="10" d="M21.171 26.229L6.333 41.392M14.257 26.352l-2.341 4.184M18.888 26.258l-4.429 14.638M14.832 26.165L3.251 29.171M9.282 26.197l-2.081.846"/><path fill="none" stroke="#CBBBA0" stroke-width=".202" stroke-miterlimit="10" d="M38.272 26.241l9.705 2.788"/><path fill="none" stroke="#CBBBA0" stroke-width=".224" stroke-miterlimit="10" d="M32.806 26.241l8.141 7.526"/><path fill="#CBBBA0" d="M21.47 27.428L8.193 33.444"/><path fill="none" stroke="#CBBBA0" stroke-width=".224" stroke-miterlimit="10" d="M24.065 26.253L8.193 33.444M25.169 26.207l-1.653 7.56M35.951 26.117l5.559 4.005M32.093 26.229l11.832 7.378"/><path fill="#CBBBA0" d="M22.472 27.607l-3.977 9.194"/><path fill="none" stroke="#CBBBA0" stroke-width=".224" stroke-miterlimit="10" d="M23.074 26.217l-4.579 10.584M29.996 26.253l2.712 5.578M22.98 26.117l3.85 6.156M26.279 26.25l1.527 10.262M16.663 26.229l-.902 2.942"/><path fill="#CBBBA0" d="M20.971 27.258l-1.433 5.511"/><path fill="none" stroke="#CBBBA0" stroke-width=".224" stroke-miterlimit="10" d="M21.252 26.177l-1.714 6.592M10.709 26.345L6.72 28.799M32.404 26.207l1.142 1.615"/><path fill="#CBBBA0" d="M25.679 27.217l-.434 3.211"/><path fill="none" stroke="#CBBBA0" stroke-width=".224" stroke-miterlimit="10" d="M25.881 26.117l-.584 4.311M20.919 26.229l-1.638 2.942M15.674 26.177l-.688 1.072"/><path fill="#CBBBA0" d="M41.816 30.122a.305.305 0 1 1-.61 0 .305.305 0 0 1 .61 0M33.15 31.831a.442.442 0 1 1-.884 0 .442.442 0 0 1 .883 0M23.948 33.767a.433.433 0 1 1-.865 0 .433.433 0 0 1 .865 0M18.773 36.801a.278.278 0 1 1-.555 0 .278.278 0 0 1 .555 0M8.566 33.444a.372.372 0 1 1-.745 0 .372.372 0 0 1 .745 0M12.412 30.536a.496.496 0 1 1-.993 0 .496.496 0 0 1 .993 0M3.726 29.171a.475.475 0 1 1-.95 0 .475.475 0 0 1 .95 0M6.86 41.392a.527.527 0 1 1-1.055 0 .527.527 0 0 1 1.055 0M14.737 40.895a.278.278 0 1 1-.556 0 .278.278 0 0 1 .556 0M22.089 39.53a.328.328 0 1 1-.655 0 .328.328 0 0 1 .655 0M23.113 36.949a.404.404 0 1 1-.807 0 .404.404 0 0 1 .807 0M30.78 40.618a.341.341 0 1 1-.683 0 .341.341 0 0 1 .682 0M36.826 44.742a.372.372 0 1 1-.744 0 .372.372 0 0 1 .744 0M44.521 33.607a.597.597 0 1 1-1.193 0 .597.597 0 0 1 1.193 0M41.35 33.767a.403.403 0 1 1-.807 0 .403.403 0 0 1 .807 0M7.092 28.8a.372.372 0 1 1-.744-.001.372.372 0 0 1 .744 0M16.15 29.171a.388.388 0 1 1-.776 0 .388.388 0 0 1 .775 0M19.848 32.77a.31.31 0 1 1-.62-.001.31.31 0 0 1 .62 0M27.148 32.273a.318.318 0 1 1-.635 0 .318.318 0 0 1 .635 0M28.096 36.512a.289.289 0 1 1-.578 0 .289.289 0 0 1 .578 0M31.96 35.25a.48.48 0 1 1-.962.001.48.48 0 0 1 .961 0M33.895 27.822a.349.349 0 1 1-.698 0 .349.349 0 0 1 .698 0M7.682 27.043a.48.48 0 1 1-.96 0 .48.48 0 0 1 .96 0M31.34 26.604a.487.487 0 1 1-.975 0 .487.487 0 0 1 .975 0M25.54 30.427a.295.295 0 1 1-.59 0 .295.295 0 0 1 .59 0M19.674 29.171a.392.392 0 1 1-.785 0 .392.392 0 0 1 .785 0M15.559 27.25a.573.573 0 1 1-1.146 0 .573.573 0 0 1 1.146 0"/></svg>