<svg version="1.2" baseProfile="tiny" xmlns="http://www.w3.org/2000/svg" viewBox="0 0 169.0994 66.5"><path fill-rule="evenodd" fill="#0064A2" d="M39.866 28.113v-6.83h7.437c4.072 0 7.105.84 9.09 2.525 1.986 1.686 2.98 4.272 2.98 7.744 0 3.359-.967 5.971-2.893 7.844-1.926 1.866-4.626 2.8-8.104 2.8h-1.113v7.67h-7.397V28.113zM85.33 64.104c17.458 0 33.329-1.923 46.381-5.182a6.713 6.713 0 0 1-1.322-4.336c-13.017 3.122-29.33 4.98-47.039 4.98-12.787 0-24.846-.97-35.463-2.683a4.47 4.47 0 0 1-.698 3.951c11.404 2.088 24.377 3.27 38.14 3.27zm54.663-37.047c.07.135 1.097.608 1.321.704.233.099.477.207.724.289.125.04.256.082.377.13.117.046.284.072.385.12a11.831 11.831 0 0 0-.343-.466 5.062 5.062 0 0 1-.318-.493c-.127-.218-.486-.833-.54-1.066-.164.004-.686.283-.852.35a3.306 3.306 0 0 0-.387.206c-.065.04-.326.215-.367.226zm-3.618-4.891c.008.341.207.978.313 1.25.16.41.313.676.517 1.031.089.155.21.324.317.464.113.148.248.288.352.43.1.135.258.282.379.402.07.071.365.33.394.373.155-.082.36-.284.544-.396.199-.121.373-.25.585-.356.202-.101.408-.224.628-.313.203-.082.472-.176.66-.266-.01-.127-.098-.438-.136-.573-.05-.18-.059-.425-.108-.587-.054-.175-.147-1.03-.147-1.257v-.246l-3.878-.043h-.42v.087zm9.638 3.313c-.658 0-1.487.092-2.071.187-.159.026-.334.06-.48.085-.09.016-.16.027-.242.047-.13.031-.132-.002-.073.115.132.26.247.486.397.733.285.468.625.879 1.01 1.246.163.155.443.37.644.486.133.077.606.339.771.342l.044-3.24zm1.519 3.227c.206-.004.787-.361.94-.463.275-.182.51-.417.742-.647.455-.452.812-1.062 1.125-1.654a8.24 8.24 0 0 1-.624-.142c-.187-.057-.437-.076-.636-.117-.311-.064-1.017-.16-1.359-.16h-.145l-.043 3.183zm3.155-.42a8.497 8.497 0 0 0 1.34-.482c.21-.104.413-.185.623-.29.12-.06.518-.291.598-.313-.096-.131-1.196-.715-1.418-.767-.045.192-.41.803-.524.981-.101.16-.196.302-.3.452-.1.142-.226.28-.32.42zm.231-3.82c.01-.118.12-.393.142-.524.027-.162.071-.376.113-.537.065-.254.136-.864.136-1.167l-3.69-.032-.018 1.407.003.333c.57 0 1.205.128 1.736.188.215.025.597.105.8.156.115.03.713.177.778.177zm-8.35-.13c.18-.004.584-.132.81-.16.263-.034.565-.085.84-.129.502-.08 1.244-.13 1.81-.13l.026-1.737-3.818-.043c0 .764.186 1.57.333 2.2zm12.026 1.91c.389-.26 1.224-1.224 1.471-1.654.186-.323.397-.66.528-1.035.059-.17.153-.401.187-.594.03-.172.125-.457.129-.652l-3.415-.048-.608.004c0 .506-.116.963-.175 1.417-.023.18-.088.477-.137.658-.039.14-.156.516-.165.631.18.095.405.174.598.27.2.1.382.186.568.3.183.112.365.21.53.338.106.081.399.318.489.365zm-2.055-7.827c.01.122.082.405.116.535.043.173.069.36.11.54.059.255.121.905.121 1.197l3.965.043c0-.26-.24-.877-.327-1.091a5.442 5.442 0 0 0-.489-.93c-.186-.276-.388-.57-.613-.804-.194-.202-.492-.573-.713-.72-.157.105-.309.244-.48.358a7.356 7.356 0 0 1-.527.327c-.173.095-.385.212-.565.289-.175.074-.442.173-.598.256zm-1.867 2.242h.637v-.116c0-.503-.175-1.219-.275-1.65-.195.017-.558.121-.79.166-.263.051-.558.115-.83.14-.564.05-1.15.158-1.766.158v1.273l.217-.002 2.807.031zm-8.393-.159v.07l3.806.031v-1.258c-.652 0-1.243-.105-1.825-.173a7.405 7.405 0 0 1-.849-.149c-.131-.032-.28-.051-.414-.092a3.778 3.778 0 0 0-.414-.093c-.007.09-.075.298-.098.394-.032.135-.046.275-.081.41a4.94 4.94 0 0 0-.125.86zm-5.832 0l4.255.043v-.057c0-.303.102-.814.153-1.106.066-.373.158-.692.238-1.036-.262-.06-1.035-.47-1.274-.608a6.953 6.953 0 0 1-.573-.367c-.179-.13-.36-.303-.527-.414-.235.158-.533.498-.741.705a5.748 5.748 0 0 0-.65.811c-.176.264-.4.618-.52.927-.087.222-.355.837-.36 1.102zm15.585-3.574c.06 0 .627-.277.71-.318.121-.061.595-.361.65-.376-.038-.143-2.135-1.136-2.445-1.143.193.288.415.555.584.877.083.16.174.305.255.468.025.05.225.492.246.492zm-4.36.854c.452 0 1.091-.06 1.484-.127.237-.04.46-.072.688-.108.18-.028.508-.128.669-.141-.045-.196-.385-.73-.492-.912a5.043 5.043 0 0 0-.611-.807c-.255-.253-.45-.46-.75-.669-.158-.11-.728-.46-.942-.477l-.046 3.24zm-4.525-.42c.457.107.931.2 1.419.275.422.066 1.093.145 1.547.145l.03-3.241v-.058c-.242.02-.83.334-1.01.451a4.378 4.378 0 0 0-.802.674c-.25.263-.45.495-.657.805-.093.14-.514.804-.527.95zm-3.082-1.345c.093.138 1.353.835 1.578.853.046-.2.442-.877.561-1.059.109-.165.206-.33.325-.485.048-.063.35-.437.358-.467a5.671 5.671 0 0 1-.377.115c-.135.03-.247.076-.374.118-.25.084-.486.17-.73.269-.482.194-.904.424-1.34.656zm-2.498 33.541c3.07 0 5.56 2.398 5.56 5.353 0 2.956-2.49 5.354-5.56 5.354-3.07 0-5.56-2.398-5.56-5.354 0-2.955 2.49-5.353 5.56-5.353zm7.186 5.314a6.725 6.725 0 0 0-1.5-4.19c10.754-4.121 17.201-9.373 17.201-15.092 0-2.917-1.677-5.71-4.745-8.296 1.481-1.235 2.48-2.782 2.787-4.492 6.554 3.393 9.885 7.48 9.192 12.514-1.033 7.508-9.468 14.399-22.935 19.556zM137.45 16.04a8.728 8.728 0 0 0-1.708 1.962c-4.803-1.384-10.174-2.581-15.993-3.552 6.059.035 11.968.54 17.701 1.59zM43.603 61.1a2.935 2.935 0 1 0 0-5.871 2.935 2.935 0 0 0 0 5.87zm-3.538-5.668C19.656 51.118 6.247 43.84 6.247 35.59c0-2.937 1.702-5.75 4.81-8.35a5.191 5.191 0 0 1-2.213-3.027c-3.73 3.188-5.872 6.845-5.872 11.103 0 9.93 14.39 18.687 36.276 23.862a4.479 4.479 0 0 1 .817-3.746zm59.06-52.008c2.625 0 4.755 2.05 4.755 4.579 0 2.528-2.13 4.579-4.756 4.579-2.626 0-4.755-2.05-4.755-4.58 0-2.527 2.13-4.578 4.755-4.578zM14.055 19.34c2.068 0 3.746 1.615 3.746 3.606 0 1.991-1.678 3.606-3.746 3.606s-3.746-1.615-3.746-3.606c0-1.991 1.678-3.606 3.746-3.606zm5.32 2.866c13.852-6.39 37.338-10.592 63.975-10.592 3.683 0 7.305.08 10.85.236a5.941 5.941 0 0 1-1.418-3.846c0-1.533.587-2.934 1.557-4.006-17.882.536-38.617 2.855-56.199 7.558-7.883 2.109-15.03 4.49-20.792 7.3 1.075.804 1.824 1.992 2.026 3.35zm84.103-9.766a201.78 201.78 0 0 1 16.205 2l11.925-7.91c-5.598-1.622-15.652-2.583-27.812-2.652a5.96 5.96 0 0 1 1.668 4.126c0 1.747-.763 3.323-1.986 4.436zM47.263 35.031h.88c1.213 0 2.153-.3 2.826-.9.672-.6 1.006-1.433 1.006-2.499 0-1.133-.333-2.006-1-2.612-.66-.607-1.62-.907-2.872-.907H47.263v6.918zm32.253 15.281h-2.29c-4.506 0-8.151-1.306-10.937-3.998-2.786-2.7-4.178-6.205-4.178-10.523 0-4.339 1.446-7.918 4.331-10.75 2.893-2.832 6.562-4.205 11.027-4.205h2.056l-.009 7.964h-2.118c-2.239 0-4.065.633-5.478 1.892-1.413 1.267-2.119 2.873-2.119 4.825 0 1.94.7 3.56 2.1 4.872 1.399 1.306 3.145 1.96 5.244 1.96h2.37v7.963zm6.844 0v-7.964h3.046c.827 0 1.6.063 2.012-.2.52-.426.78-.96.78-1.599 0-.846-.707-1.92-2.126-3.219-.487-.44-.853-.793-1.113-1.053-1.006-1.02-1.746-2.066-2.233-3.145a8.508 8.508 0 0 1-.72-3.492c0-2.566.9-4.672 2.693-6.325 1.8-1.653 4.125-2.479 6.97-2.479 1 0 2.479-.117 3.752 0V28.8h-2.902c-1.526 0-2.116.382-2.107 1.291.007.806.678 1.608 2.044 2.687.547.447.967.8 1.267 1.06 1.106.96 1.952 2.066 2.532 3.319.58 1.246.866 2.579.866 3.998 0 2.853-.946 5.092-2.839 6.718-1.899 1.626-4.525 2.44-7.883 2.44-1.051-.021-2.58 0-4.039 0zm20.153 0v-7.964h3.045c.827 0 1.6.063 2.013-.2.52-.426.78-.96.78-1.599 0-.846-.707-1.92-2.127-3.219-.486-.44-.853-.793-1.112-1.053-1.007-1.02-1.746-2.066-2.233-3.145a8.506 8.506 0 0 1-.72-3.492c0-2.566.9-4.672 2.693-6.325 1.799-1.653 4.125-2.479 6.97-2.479 1 0 2.478-.117 3.751 0V28.8h-2.901c-1.526 0-2.116.382-2.108 1.291.008.806.679 1.608 2.045 2.687.546.447.966.8 1.266 1.06 1.106.96 1.953 2.066 2.533 3.319.58 1.246.866 2.579.866 3.998 0 2.853-.946 5.092-2.839 6.718-1.9 1.626-4.525 2.44-7.884 2.44-1.05-.021-2.579 0-4.038 0z"/></svg>